<svg width="105" height="38" viewBox="0 0 105 38" fill="none" xmlns="http://www.w3.org/2000/svg">
<path d="M15.5466 7.27057C16.0037 3.88026 14.4953 0.878472 12.1773 0.565896C9.85939 0.25332 7.60969 2.74832 7.15251 6.13864C6.69533 9.52895 8.20378 12.5307 10.5217 12.8433C12.8397 13.1559 15.0894 10.6609 15.5466 7.27057Z" fill="#D94A56"/>
<path d="M4.23501 24.6735C6.57395 24.6735 8.47003 21.9002 8.47003 18.4792C8.47003 15.0582 6.57395 12.2849 4.23501 12.2849C1.89608 12.2849 0 15.0582 0 18.4792C0 21.9002 1.89608 24.6735 4.23501 24.6735Z" fill="#D94A56"/>
<path d="M23.8814 12.845C26.1994 12.5324 27.7078 9.53063 27.2507 6.14032C26.7935 2.75 24.5438 0.255001 22.2258 0.567577C19.9079 0.880153 18.3994 3.88194 18.8566 7.27225C19.3138 10.6626 21.5635 13.1576 23.8814 12.845Z" fill="#F2B366"/>
<path d="M30.1676 24.6735C32.5066 24.6735 34.4026 21.9002 34.4026 18.4792C34.4026 15.0582 32.5066 12.2849 30.1676 12.2849C27.8287 12.2849 25.9326 15.0582 25.9326 18.4792C25.9326 21.9002 27.8287 24.6735 30.1676 24.6735Z" fill="#D94A56"/>
<path d="M28.6503 27.8661L21.9159 15.4801C19.8034 11.5942 14.5235 11.5942 12.411 15.4801L5.67669 27.8661C3.56421 31.752 6.20418 36.6074 10.4291 36.6074C11.14 36.6074 11.773 36.1377 12.0192 35.4319C13.785 30.3579 20.5419 30.3579 22.3078 35.4319C22.5539 36.1377 23.1894 36.6074 23.8978 36.6074C28.1228 36.6074 30.7627 31.752 28.6503 27.8661ZM20.1978 23.2292L17.161 26.266L14.1241 23.2292C13.2851 22.3902 13.2851 21.0313 14.1241 20.1923C14.9631 19.3534 16.322 19.3534 17.161 20.1923C17.9999 19.3534 19.3588 19.3534 20.1978 20.1923C21.0368 21.0313 21.0368 22.3902 20.1978 23.2292Z" fill="#D94A56"/>
<path d="M48.552 36.6045C47.9341 36.6045 47.4443 36.0896 47.4744 35.4717C47.5674 33.54 47.6302 30.7343 47.6302 29.1116V27.725C47.6302 24.859 47.2207 23.8216 45.6157 23.8216C45.1133 23.8216 44.5757 23.9371 44.0206 24.1707C43.6288 24.334 43.3751 24.7208 43.3675 25.1428C43.3424 26.336 43.3198 27.6798 43.3198 29.2698C43.3198 31.4577 43.3826 33.746 43.473 35.4742C43.5057 36.0921 43.0134 36.6045 42.3954 36.6045H38.9542C38.3363 36.6045 37.8464 36.0896 37.8766 35.4717C37.9695 33.5551 38.0323 30.8523 38.0323 28.8906C38.0323 26.1074 37.8238 24.3968 37.4772 23.7814C37.3968 23.6382 37.3591 23.48 37.3566 23.3167C37.3491 22.9801 37.3466 22.435 37.3491 21.9704C37.3516 21.4705 37.7008 21.0384 38.1881 20.9254L40.8783 20.305C41.3957 20.1869 41.9257 20.4582 42.1216 20.9505C42.1242 20.9606 42.1292 20.9681 42.1317 20.9782C42.3904 21.6338 43.1892 21.8774 43.7669 21.473C44.43 21.0083 45.1384 20.5537 45.7638 20.1894C45.8618 20.1317 45.9598 20.0915 46.0678 20.0689C46.5526 19.9634 47.168 19.8855 47.7306 19.8855C49.5769 19.8855 50.9559 20.4934 51.835 21.4203C52.1993 21.8046 52.7896 21.8523 53.2266 21.5509C53.9274 21.0686 54.6961 20.5813 55.3667 20.1894C55.4647 20.1317 55.5627 20.0915 55.6732 20.0664C56.1454 19.9609 56.7081 19.8855 57.2431 19.8855C60.5814 19.8855 62.5658 21.5534 62.5658 24.3893C62.5658 25.9316 62.4703 28.2299 62.4703 29.8049C62.4703 31.2417 62.5331 33.6581 62.626 35.4742C62.6562 36.0921 62.1664 36.607 61.5484 36.607H58.1072C57.4893 36.607 56.9994 36.0921 57.0296 35.4742C57.1225 33.5375 57.1853 30.6966 57.1853 28.8931V27.7276C57.1853 24.8615 56.7432 23.8241 55.1382 23.8241C54.6835 23.8241 54.1661 23.9397 53.616 24.1682C53.2216 24.334 52.9654 24.7284 52.9629 25.1579C52.9553 26.4164 52.9327 27.5794 52.9327 29.4306C52.9327 31.3899 52.9955 33.7234 53.086 35.4742C53.1186 36.0921 52.6263 36.607 52.0084 36.607H48.5696L48.552 36.6045Z" fill="#D94A56"/>
<path d="M67.1272 36.6048C66.5621 36.6048 66.1149 36.1351 66.1426 35.5724C66.238 33.6508 66.3033 30.8878 66.3033 28.8908C66.3033 25.9972 66.0873 24.053 65.7532 23.4376C65.6854 23.312 65.6628 23.1713 65.6578 23.0281C65.6502 22.7091 65.6477 22.1841 65.6502 21.727C65.6528 21.2196 66.0396 20.7976 66.5445 20.7499L70.6288 20.3706C71.2291 20.3153 71.739 20.8026 71.7038 21.4029C71.5933 23.3672 71.528 26.1253 71.528 29.2676C71.528 31.4956 71.5933 33.8292 71.6863 35.5699C71.7164 36.1326 71.2668 36.6048 70.7016 36.6048H67.1272ZM68.6745 17.6025C67.2202 16.869 65.4644 15.9396 64.6154 15.0203C64.0401 14.3948 65.08 13.478 65.8838 13.0359C66.8132 12.4682 68.4208 12.217 68.8001 12.217C71.2115 12.217 72.8166 13.257 72.8166 14.7666C72.8166 15.6181 71.8897 15.9045 71.1286 16.344C70.1967 16.8791 68.976 17.7507 68.6745 17.6V17.6025Z" fill="#D94A56"/>
<path d="M82.1106 37.2025C77.5138 37.2025 74.4268 34.0853 74.4268 29.1419C74.4268 26.1201 75.5923 23.4425 77.858 21.9303C80.0307 20.5463 82.8641 19.853 83.1806 19.853C83.2585 19.853 83.3364 19.853 83.4167 19.853C83.4971 19.853 83.575 19.8581 83.6529 19.8606C83.7307 19.8631 83.8111 19.8681 83.8915 19.8731C83.9719 19.8781 84.0497 19.8832 84.1301 19.8907C84.2105 19.8982 84.2909 19.9058 84.3687 19.9133C84.4466 19.9208 84.5295 19.9309 84.6099 19.9409C84.6903 19.951 84.7706 19.961 84.851 19.9736C84.9314 19.9862 85.0118 19.9962 85.0922 20.0113C85.1725 20.0263 85.2529 20.0389 85.3333 20.054C85.4137 20.069 85.4941 20.0841 85.5744 20.0992C85.6548 20.1143 85.7352 20.1318 85.8156 20.1494C85.896 20.167 85.9763 20.1846 86.0567 20.2047C86.1371 20.2248 86.2175 20.2449 86.2979 20.265C86.3782 20.2851 86.4586 20.3077 86.5365 20.3303C86.6143 20.3529 86.6947 20.3755 86.7751 20.4006C86.8555 20.4257 86.9334 20.4483 87.0137 20.4735C87.0941 20.4986 87.172 20.5262 87.2499 20.5513C87.3277 20.5764 87.4081 20.6066 87.486 20.6342C87.5638 20.6618 87.6417 20.692 87.7196 20.7221C87.7974 20.7523 87.8753 20.7824 87.9532 20.8151C88.031 20.8477 88.1064 20.8779 88.1843 20.9105C88.2621 20.9432 88.3375 20.9758 88.4128 21.011C88.443 21.0236 88.4731 21.0386 88.5008 21.0512C88.5158 21.0587 88.5309 21.0637 88.546 21.0713C88.5585 21.0763 88.5736 21.0813 88.5837 21.0914C88.6012 21.109 88.6063 21.1341 88.6012 21.1567C88.5962 21.1994 88.5811 21.2396 88.5661 21.2773L88.5183 21.4054L88.4229 21.6591L88.3274 21.9128L88.232 22.1665L88.1365 22.4202L88.0411 22.6739L87.9456 22.9276L87.8502 23.1813C87.82 23.2616 87.7899 23.342 87.7598 23.4199C87.594 23.8595 87.4282 24.299 87.2649 24.7386C87.2122 24.8768 87.1594 25.0124 87.1092 25.1531C87.0087 25.4419 86.6822 25.5424 86.3958 25.5374C86.0065 25.5299 85.6774 25.3113 85.3433 25.138C85.0595 24.9923 84.7782 24.8466 84.4943 24.7009C82.5928 23.7213 80.2342 24.9069 79.9981 27.0345C79.9604 27.3736 79.9428 27.7378 79.9428 28.1246C79.9428 31.3348 81.2013 32.9725 83.688 32.9725C84.5622 32.9725 85.4287 32.7791 86.2526 32.4953C86.7299 32.3295 87.1946 32.1311 87.6467 31.9075C87.8703 31.797 87.9883 31.8045 88.2094 31.9351C88.3827 32.0381 88.5284 32.1863 88.6414 32.3521C88.659 32.3797 88.6766 32.4074 88.6917 32.435C88.875 32.749 88.9554 33.1132 89.0132 33.4724C89.091 33.9547 89.1338 34.4545 89.0383 34.9368C88.9906 35.1779 88.7118 35.2508 88.5083 35.3613C88.2847 35.4794 88.0587 35.5949 87.8326 35.708C87.0137 36.1099 86.1647 36.4615 85.2881 36.7177C84.2582 37.0217 83.1882 37.1925 82.1131 37.1925L82.1106 37.2025Z" fill="#D94A56"/>
<path d="M94.7076 37.0469C92.0325 37.0469 90.2993 35.2836 90.2993 32.5758C90.2993 30.3402 91.5276 28.7352 93.6677 27.9791L99.1461 27.1929V26.1856C99.1461 24.5805 98.2971 23.6989 96.7222 23.6989C95.529 23.6989 94.3761 24.1887 93.3236 24.7011C93.0322 24.8443 92.6554 25.1532 92.3339 25.1683C92.0526 25.1809 91.6884 24.9699 91.4673 24.8192C90.965 24.4775 90.5932 23.9325 90.5078 23.3271C90.4149 22.679 90.5455 21.5562 91.1734 21.2649C91.8843 20.9358 92.6856 20.7248 93.4392 20.5264C94.9186 20.137 96.4509 19.8909 97.9831 19.8909C101.982 19.8909 104.406 21.5286 104.406 24.3947C104.406 25.7486 104.185 27.6375 104.185 29.9032C104.185 30.7195 104.218 31.5359 104.303 32.3472C104.373 33.0179 104.476 33.6861 104.645 34.3417C104.697 34.5501 104.758 34.7561 104.825 34.9596C104.858 35.055 104.891 35.1505 104.928 35.2434C104.976 35.364 104.991 35.5021 104.999 35.6328C105.009 35.8011 104.956 35.9719 104.851 36.1C104.692 36.2934 104.466 36.3386 104.233 36.3763L103.7 36.4642C103.223 36.5421 102.746 36.6199 102.268 36.6978C101.851 36.7656 101.437 36.8334 101.02 36.9013C100.909 36.9188 100.796 36.9389 100.686 36.9565C100.339 36.3587 99.9625 35.5072 99.7414 34.721C98.797 35.4444 97.536 36.2632 96.5288 36.8309C96.1193 36.9565 95.3331 37.052 94.7026 37.052L94.7076 37.0469ZM99.0833 32.5457V29.0517L96.4685 29.6821C95.5567 29.8705 95.0518 30.501 95.0518 31.4781C95.0518 32.611 95.7124 33.3369 96.7825 33.3369C97.5059 33.3369 98.3574 33.0531 99.0808 32.5507L99.0833 32.5457Z" fill="#D94A56"/>
<path d="M74.5023 15.4524C75.4091 15.5579 76.3134 15.6634 77.2202 15.7689C79.3829 16.02 81.5456 16.2712 83.7108 16.5224C86.3257 16.8263 88.9405 17.1303 91.5554 17.4317C93.8161 17.6929 96.0768 17.9567 98.34 18.2179L100.586 18.4792C100.93 18.5193 101.299 18.6022 101.646 18.6022C101.661 18.6022 101.678 18.6048 101.693 18.6073C101.894 18.6299 101.892 18.3159 101.693 18.2933C100.787 18.1878 99.8822 18.0823 98.9755 17.9768C96.8127 17.7256 94.65 17.4744 92.4848 17.2232C89.8699 16.9193 87.2551 16.6154 84.6402 16.3139C82.3795 16.0527 80.1189 15.7889 77.8557 15.5277L75.61 15.2665C75.2659 15.2263 74.8967 15.1434 74.55 15.1434C74.535 15.1434 74.5174 15.1409 74.5023 15.1384C74.3014 15.1158 74.3039 15.4297 74.5023 15.4524Z" fill="#D94A56"/>
<path d="M36.4169 10.7351C37.3236 10.8406 38.2279 10.9461 39.1347 11.0516C41.2974 11.3028 43.4601 11.5539 45.6254 11.8051C48.2402 12.1091 50.8551 12.413 53.4699 12.7144C55.7306 12.9757 57.9913 13.2394 60.2545 13.5006L62.5001 13.7619C62.8442 13.8021 63.2135 13.885 63.5601 13.885C63.5752 13.885 63.5928 13.8875 63.6079 13.89C63.8088 13.9126 63.8063 13.5986 63.6079 13.576C62.7011 13.4705 61.7968 13.365 60.89 13.2595L54.3993 12.5059C51.7845 12.202 49.1696 11.8981 46.5548 11.5966L39.7702 10.8104L37.5246 10.5492C37.1805 10.509 36.8112 10.4261 36.4646 10.4261C36.4495 10.4261 36.4319 10.4236 36.4169 10.4211C36.2159 10.3985 36.2184 10.7125 36.4169 10.7351Z" fill="#D94A56"/>
<path d="M63.603 15.1384C62.6962 15.2439 61.7919 15.3494 60.8851 15.4549L54.3945 16.2084C51.7796 16.5124 49.1647 16.8163 46.5499 17.1177C44.2892 17.379 42.0285 17.6427 39.7653 17.9039C38.6676 18.032 37.5524 18.1099 36.4597 18.2883C36.4446 18.2908 36.427 18.2908 36.412 18.2933C36.2135 18.3159 36.211 18.6299 36.412 18.6073C37.3188 18.5018 38.223 18.3963 39.1298 18.2908L45.6205 17.5372L53.4651 16.6279C55.7257 16.3667 57.9864 16.1029 60.2496 15.8417C61.3473 15.7136 62.4626 15.6357 63.5552 15.4574C63.5703 15.4549 63.5879 15.4549 63.603 15.4524C63.8014 15.4297 63.8039 15.1158 63.603 15.1384Z" fill="#D94A56"/>
<path d="M101.69 10.4211C100.784 10.5266 99.8793 10.6321 98.9725 10.7376L92.4819 11.4911C89.867 11.7951 87.2521 12.099 84.6373 12.4004L77.8527 13.1867C76.755 13.3148 75.6398 13.3926 74.5471 13.571C74.532 13.5735 74.5145 13.5735 74.4994 13.576C74.3009 13.5986 74.2984 13.9126 74.4994 13.89C75.4062 13.7845 76.3104 13.679 77.2172 13.5735L83.7079 12.8199C86.3228 12.516 88.9376 12.212 91.5525 11.9106L98.337 11.1244C99.4347 10.9963 100.55 10.9184 101.643 10.7401C101.658 10.7376 101.675 10.7376 101.69 10.7351C101.889 10.7125 101.891 10.3985 101.69 10.4211Z" fill="#D94A56"/>
</svg>
