<svg width="350" height="134" viewBox="0 0 230 88" fill="none" xmlns="http://www.w3.org/2000/svg">
<path d="M37.1377 17.8184C38.1084 10.6132 34.9055 4.23365 29.9838 3.56936C25.0621 2.90506 20.2853 8.20753 19.3146 15.4128C18.3438 22.618 21.5467 28.9975 26.4684 29.6618C31.3901 30.3261 36.1669 25.0236 37.1377 17.8184Z" fill="white"/>
<path d="M13.1204 54.8032C18.0866 54.8032 22.1126 48.9094 22.1126 41.6389C22.1126 34.3685 18.0866 28.4746 13.1204 28.4746C8.15412 28.4746 4.12817 34.3685 4.12817 41.6389C4.12817 48.9094 8.15412 54.8032 13.1204 54.8032Z" fill="white"/>
<path d="M54.8349 29.6649C59.7566 29.0006 62.9595 22.6211 61.9887 15.4159C61.018 8.21063 56.2412 2.90815 51.3195 3.57245C46.3978 4.23675 43.1949 10.6163 44.1656 17.8215C45.1364 25.0267 49.9131 30.3292 54.8349 29.6649Z" fill="white"/>
<path d="M68.1829 54.8032C73.1491 54.8032 77.1751 48.9094 77.1751 41.6389C77.1751 34.3685 73.1491 28.4746 68.1829 28.4746C63.2166 28.4746 59.1907 34.3685 59.1907 41.6389C59.1907 48.9094 63.2166 54.8032 68.1829 54.8032Z" fill="white"/>
<path d="M64.9614 61.5882L50.6624 35.265C46.177 27.0066 34.9661 27.0066 30.4806 35.265L16.1816 61.5882C11.6962 69.8466 17.3017 80.1656 26.2725 80.1656C27.7819 80.1656 29.1259 79.1673 29.6486 77.6673C33.398 66.8839 47.745 66.8839 51.4945 77.6673C52.0171 79.1673 53.3665 80.1656 54.8705 80.1656C63.8414 80.1656 69.4469 69.8466 64.9614 61.5882ZM47.0144 51.7337L40.5662 58.1877L34.1181 51.7337C32.3367 49.9507 32.3367 47.0627 34.1181 45.2797C35.8994 43.4967 38.7848 43.4967 40.5662 45.2797C42.3476 43.4967 45.233 43.4967 47.0144 45.2797C48.7957 47.0627 48.7957 49.9507 47.0144 51.7337Z" fill="white"/>
<path d="M107.218 80.1602C105.906 80.1602 104.866 79.0658 104.93 77.7526C105.128 73.6474 105.261 67.6845 105.261 64.236V61.2892C105.261 55.1982 104.392 52.9935 100.984 52.9935C99.9169 52.9935 98.7756 53.239 97.5969 53.7355C96.7648 54.0825 96.2262 54.9046 96.2102 55.8014C96.1568 58.3371 96.1088 61.1931 96.1088 64.5723C96.1088 69.222 96.2422 74.0852 96.4342 77.7579C96.5035 79.0712 95.4581 80.1602 94.1461 80.1602H86.8393C85.5273 80.1602 84.4872 79.0658 84.5512 77.7526C84.7486 73.6795 84.8819 67.9354 84.8819 63.7662C84.8819 57.8513 84.4392 54.2159 83.7032 52.908C83.5325 52.6038 83.4525 52.2674 83.4472 51.9204C83.4312 51.2051 83.4259 50.0467 83.4312 49.0591C83.4365 47.9968 84.1779 47.0786 85.2126 46.8384L90.9247 45.5198C92.0234 45.2689 93.1488 45.8454 93.5648 46.8917C93.5701 46.9131 93.5808 46.9291 93.5861 46.9505C94.1355 48.3438 95.8315 48.8616 97.0582 48.0021C98.4662 47.0145 99.9702 46.0483 101.298 45.2742C101.506 45.1515 101.714 45.066 101.944 45.018C102.973 44.7938 104.28 44.6283 105.474 44.6283C109.394 44.6283 112.323 45.9202 114.189 47.89C114.963 48.7068 116.216 48.8082 117.144 48.1676C118.632 47.1426 120.264 46.107 121.688 45.2742C121.896 45.1515 122.104 45.066 122.339 45.0127C123.341 44.7884 124.536 44.6283 125.672 44.6283C132.76 44.6283 136.974 48.1729 136.974 54.1999C136.974 57.4776 136.771 62.3622 136.771 65.7093C136.771 68.7629 136.904 73.8983 137.102 77.7579C137.166 79.0712 136.126 80.1655 134.814 80.1655H127.507C126.195 80.1655 125.155 79.0712 125.219 77.7579C125.416 73.6421 125.55 67.6044 125.55 63.7715V61.2945C125.55 55.2035 124.611 52.9988 121.203 52.9988C120.237 52.9988 119.139 53.2444 117.971 53.7301C117.133 54.0825 116.589 54.9206 116.584 55.8334C116.568 58.5079 116.52 60.9796 116.52 64.9139C116.52 69.0778 116.653 74.0371 116.845 77.7579C116.915 79.0712 115.869 80.1655 114.557 80.1655H107.256L107.218 80.1602Z" fill="white"/>
<path d="M146.659 80.1604C145.459 80.1604 144.51 79.1621 144.569 77.9663C144.771 73.8825 144.91 68.0103 144.91 63.7664C144.91 57.6166 144.451 53.4848 143.742 52.1769C143.598 51.9099 143.55 51.611 143.539 51.3067C143.523 50.6287 143.518 49.513 143.523 48.5415C143.529 47.4631 144.35 46.5663 145.422 46.4649L154.094 45.6588C155.369 45.5413 156.452 46.577 156.377 47.8528C156.142 52.0274 156.004 57.8889 156.004 64.5671C156.004 69.3022 156.142 74.2615 156.34 77.961C156.404 79.1568 155.449 80.1604 154.249 80.1604H146.659ZM149.945 39.7759C146.857 38.2171 143.129 36.242 141.326 34.2881C140.105 32.9589 142.313 31.0104 144.019 30.0709C145.993 28.8644 149.406 28.3306 150.211 28.3306C155.332 28.3306 158.74 30.5406 158.74 33.749C158.74 35.5587 156.772 36.1672 155.156 37.1014C153.177 38.2385 150.585 40.0909 149.945 39.7706V39.7759Z" fill="white"/>
<path d="M178.473 81.4308C168.713 81.4308 162.158 74.8059 162.158 64.3001C162.158 57.8781 164.633 52.1874 169.444 48.9738C174.057 46.0323 180.074 44.559 180.746 44.559C180.911 44.559 181.076 44.559 181.247 44.559C181.418 44.559 181.583 44.5696 181.748 44.575C181.914 44.5803 182.084 44.591 182.255 44.6017C182.426 44.6123 182.591 44.623 182.762 44.639C182.932 44.6551 183.103 44.6711 183.268 44.6871C183.434 44.7031 183.61 44.7244 183.78 44.7458C183.951 44.7672 184.122 44.7885 184.292 44.8152C184.463 44.8419 184.634 44.8632 184.804 44.8953C184.975 44.9273 185.146 44.954 185.316 44.986C185.487 45.0181 185.658 45.0501 185.828 45.0821C185.999 45.1141 186.17 45.1515 186.34 45.1889C186.511 45.2263 186.682 45.2636 186.852 45.3063C187.023 45.349 187.194 45.3917 187.364 45.4344C187.535 45.4772 187.706 45.5252 187.871 45.5732C188.036 45.6213 188.207 45.6693 188.378 45.7227C188.548 45.7761 188.714 45.8241 188.884 45.8775C189.055 45.9309 189.22 45.9896 189.386 46.043C189.551 46.0964 189.722 46.1605 189.887 46.2192C190.052 46.2779 190.218 46.342 190.383 46.406C190.548 46.4701 190.714 46.5341 190.879 46.6035C191.044 46.6729 191.204 46.737 191.37 46.8064C191.535 46.8758 191.695 46.9452 191.855 47.0199C191.919 47.0466 191.983 47.0786 192.042 47.1053C192.074 47.1214 192.106 47.132 192.138 47.148C192.164 47.1587 192.196 47.1694 192.218 47.1908C192.255 47.2281 192.266 47.2815 192.255 47.3296C192.244 47.4203 192.212 47.5057 192.18 47.5858L192.079 47.858L191.876 48.3972L191.674 48.9364L191.471 49.4756L191.268 50.0147L191.066 50.5539L190.863 51.0931L190.66 51.6322C190.596 51.8031 190.532 51.9739 190.468 52.1394C190.116 53.0736 189.764 54.0078 189.418 54.942C189.306 55.2356 189.194 55.5239 189.087 55.8228C188.874 56.4367 188.18 56.6503 187.572 56.6396C186.746 56.6236 186.047 56.1591 185.338 55.7908C184.735 55.4812 184.138 55.1715 183.535 54.8619C179.498 52.78 174.489 55.2997 173.988 59.8212C173.908 60.5419 173.871 61.316 173.871 62.1381C173.871 68.9604 176.543 72.441 181.823 72.441C183.679 72.441 185.519 72.03 187.268 71.4267C188.282 71.0744 189.268 70.6527 190.228 70.1776C190.703 69.9427 190.954 69.9587 191.423 70.2363C191.791 70.4552 192.1 70.7701 192.34 71.1225C192.378 71.1812 192.415 71.2399 192.447 71.2986C192.836 71.9659 193.007 72.74 193.13 73.5034C193.295 74.5283 193.386 75.5906 193.183 76.6156C193.082 77.1281 192.49 77.2829 192.058 77.5178C191.583 77.7687 191.103 78.0142 190.623 78.2545C188.884 79.1086 187.082 79.856 185.22 80.4005C183.034 81.0464 180.762 81.4094 178.479 81.4094L178.473 81.4308Z" fill="white"/>
<path d="M205.221 81.0999C199.541 81.0999 195.861 77.3524 195.861 71.5977C195.861 66.8466 198.469 63.4354 203.013 61.8286L214.645 60.1577V58.017C214.645 54.6058 212.842 52.7321 209.498 52.7321C206.965 52.7321 204.517 53.773 202.282 54.862C201.663 55.1663 200.863 55.8229 200.181 55.855C199.583 55.8817 198.81 55.4333 198.341 55.113C197.274 54.3869 196.485 53.2285 196.303 51.942C196.106 50.5647 196.383 48.1785 197.717 47.5592C199.226 46.8599 200.927 46.4115 202.527 45.9898C205.669 45.1623 208.922 44.6392 212.176 44.6392C220.667 44.6392 225.813 48.1197 225.813 54.2108C225.813 57.0881 225.344 61.1026 225.344 65.9177C225.344 67.6527 225.413 69.3876 225.595 71.1119C225.744 72.5372 225.963 73.9572 226.32 75.3505C226.432 75.7936 226.56 76.2314 226.704 76.6638C226.773 76.8666 226.843 77.0695 226.923 77.267C227.024 77.5232 227.056 77.8168 227.072 78.0944C227.093 78.4521 226.981 78.8151 226.757 79.0874C226.421 79.4984 225.941 79.5945 225.445 79.6746L224.315 79.8614C223.301 80.0269 222.288 80.1924 221.275 80.3579C220.389 80.502 219.509 80.6462 218.624 80.7903C218.389 80.8277 218.149 80.8704 217.914 80.9077C217.178 79.6372 216.378 77.8275 215.909 76.1566C213.904 77.6941 211.226 79.4344 209.088 80.6408C208.218 80.9077 206.549 81.1106 205.21 81.1106L205.221 81.0999ZM214.512 71.5336V64.108L208.96 65.4479C207.024 65.8483 205.951 67.1882 205.951 69.2649C205.951 71.6724 207.354 73.2152 209.626 73.2152C211.162 73.2152 212.97 72.612 214.506 71.5443L214.512 71.5336Z" fill="white"/>
<path d="M162.318 35.2063C164.244 35.4305 166.164 35.6547 168.089 35.8789C172.681 36.4127 177.274 36.9466 181.871 37.4804C187.423 38.1263 192.975 38.7723 198.527 39.4129C203.327 39.9681 208.128 40.5286 212.933 41.0838L217.701 41.6389C218.432 41.7244 219.216 41.9005 219.952 41.9005C219.984 41.9005 220.021 41.9059 220.053 41.9112C220.48 41.9592 220.475 41.292 220.053 41.2439C218.128 41.0197 216.208 40.7955 214.282 40.5713C209.69 40.0374 205.098 39.5036 200.501 38.9698C194.949 38.3238 189.396 37.6779 183.844 37.0373C179.044 36.4821 174.244 35.9216 169.439 35.3664L164.671 34.8112C163.94 34.7258 163.156 34.5497 162.42 34.5497C162.388 34.5497 162.35 34.5443 162.318 34.539C161.892 34.4909 161.897 35.1582 162.318 35.2063Z" fill="white"/>
<path d="M81.4525 25.181C83.3779 25.4052 85.298 25.6294 87.2233 25.8536C91.8154 26.3875 96.4075 26.9213 101.005 27.4551C106.557 28.1011 112.109 28.747 117.661 29.3876C122.461 29.9428 127.262 30.5033 132.067 31.0585L136.835 31.6137C137.566 31.6991 138.35 31.8753 139.086 31.8753C139.118 31.8753 139.155 31.8806 139.187 31.8859C139.614 31.934 139.609 31.2667 139.187 31.2186C137.262 30.9944 135.342 30.7702 133.416 30.546L119.635 28.9445C114.083 28.2986 108.53 27.6526 102.978 27.012L88.5727 25.3411L83.8046 24.786C83.0739 24.7005 82.2899 24.5244 81.5539 24.5244C81.5219 24.5244 81.4845 24.519 81.4525 24.5137C81.0259 24.4657 81.0312 25.1329 81.4525 25.181Z" fill="white"/>
<path d="M139.176 34.539C137.251 34.7632 135.331 34.9874 133.406 35.2116L119.624 36.8131C114.072 37.459 108.52 38.105 102.968 38.7456C98.1675 39.3008 93.3674 39.8613 88.562 40.4165C86.2312 40.6887 83.8632 40.8542 81.5431 41.2332C81.5111 41.2386 81.4738 41.2386 81.4418 41.2439C81.0204 41.292 81.0151 41.9592 81.4418 41.9112C83.3672 41.687 85.2872 41.4628 87.2126 41.2386L100.994 39.6371L117.651 37.7046C122.451 37.1494 127.251 36.5889 132.056 36.0337C134.387 35.7615 136.755 35.596 139.075 35.2169C139.107 35.2116 139.144 35.2116 139.176 35.2063C139.598 35.1582 139.603 34.4909 139.176 34.539Z" fill="white"/>
<path d="M220.048 24.5137C218.122 24.7379 216.202 24.9621 214.277 25.1863L200.495 26.7878C194.943 27.4338 189.391 28.0797 183.839 28.7203L169.433 30.3912C167.103 30.6635 164.735 30.8289 162.414 31.208C162.382 31.2133 162.345 31.2133 162.313 31.2186C161.892 31.2667 161.886 31.934 162.313 31.8859C164.239 31.6617 166.159 31.4375 168.084 31.2133L181.866 29.6118C187.418 28.9659 192.97 28.3199 198.522 27.6793L212.928 26.0084C215.258 25.7362 217.626 25.5707 219.946 25.1917C219.978 25.1863 220.016 25.1863 220.048 25.181C220.469 25.1329 220.474 24.4657 220.048 24.5137Z" fill="white"/>
</svg>
