<?xml version="1.0" standalone="no"?>
<!DOCTYPE svg PUBLIC "-//W3C//DTD SVG 20010904//EN"
 "http://www.w3.org/TR/2001/REC-SVG-20010904/DTD/svg10.dtd">
<svg version="1.0" xmlns="http://www.w3.org/2000/svg"
 width="599.000000pt" height="599.000000pt" viewBox="0 0 599.000000 599.000000"
 preserveAspectRatio="xMidYMid meet">
<metadata>
Created by potrace 1.14, written by Peter Selinger 2001-2017
</metadata>
<g transform="translate(0.000000,599.000000) scale(0.100000,-0.100000)"
fill="#000000" stroke="none">
<path d="M1968 5966 c-57 -17 -168 -68 -168 -78 0 -5 -6 -8 -12 -8 -32 0 -219
-184 -237 -233 -2 -6 -12 -19 -21 -30 -27 -29 -108 -197 -140 -292 -16 -47
-27 -85 -25 -85 3 0 0 -12 -6 -26 -5 -15 -12 -42 -15 -62 -3 -19 -8 -44 -10
-56 -28 -135 -23 -375 11 -526 8 -36 17 -76 21 -89 14 -62 77 -196 128 -271
42 -62 122 -146 165 -172 20 -12 38 -24 41 -27 12 -14 87 -43 143 -56 55 -13
162 -13 223 -1 52 11 185 77 220 110 7 6 24 20 40 31 31 22 35 26 84 81 89 98
179 247 215 354 1 3 7 19 14 35 52 125 89 355 85 528 -2 116 -16 236 -34 281
-5 14 -8 26 -5 26 4 0 -27 96 -42 130 -3 8 -7 17 -8 20 -19 55 -104 200 -117
200 -5 0 -8 4 -8 9 0 14 -86 97 -136 132 -50 34 -114 64 -159 75 -59 13 -200
13 -247 0z"/>
<path d="M3780 5967 c-203 -52 -379 -243 -459 -497 -50 -162 -56 -202 -56
-395 0 -206 9 -275 53 -425 44 -145 82 -228 171 -365 36 -55 47 -68 118 -138
74 -74 77 -76 128 -107 22 -13 43 -29 47 -34 4 -6 8 -8 8 -3 0 4 19 -2 41 -14
23 -11 50 -22 60 -25 11 -2 29 -6 42 -9 58 -15 146 -12 215 6 128 32 242 114
328 235 42 58 94 150 94 165 0 4 6 22 14 40 8 19 15 37 15 41 1 4 8 26 16 49
35 98 55 259 50 409 -2 69 -6 132 -9 140 -2 8 -7 35 -10 59 -13 98 -49 224
-94 321 -13 30 -25 61 -25 68 0 6 -4 12 -8 12 -4 0 -10 8 -13 18 -8 25 -96
161 -126 195 -14 16 -36 41 -51 56 -34 36 -139 121 -149 121 -5 0 -15 6 -22
14 -8 8 -53 27 -100 43 -96 33 -197 40 -278 20z"/>
<path d="M749 4023 c-71 -14 -197 -72 -232 -106 -12 -12 -34 -32 -50 -44 -35
-27 -117 -126 -117 -142 0 -6 -4 -11 -9 -11 -15 0 -117 -217 -139 -295 -47
-166 -56 -235 -57 -415 0 -114 3 -153 21 -275 7 -48 48 -192 69 -241 8 -19 14
-36 15 -39 0 -3 15 -31 32 -62 79 -145 166 -247 272 -317 190 -126 412 -119
602 19 29 22 119 110 144 141 29 38 70 104 70 114 0 5 4 10 8 10 13 0 93 188
107 250 1 8 8 33 13 55 36 132 49 367 30 530 -13 113 -65 306 -101 370 -6 11
-10 23 -9 28 1 4 -2 7 -7 7 -5 0 -11 10 -15 23 -3 12 -5 22 -3 22 1 0 -22 34
-51 76 -107 154 -224 248 -362 289 -85 25 -153 29 -231 13z"/>
<path d="M5059 4024 c-65 -12 -181 -59 -187 -76 -2 -4 -9 -8 -15 -8 -10 0 -30
-15 -92 -68 -27 -23 -85 -92 -85 -101 0 -5 -3 -11 -7 -13 -13 -5 -65 -78 -56
-78 4 0 3 -4 -3 -8 -9 -6 -69 -119 -69 -132 0 -3 -3 -9 -6 -15 -18 -30 -60
-179 -74 -265 -3 -19 -8 -48 -11 -64 -10 -47 -12 -257 -3 -331 16 -141 31
-209 72 -330 27 -78 101 -225 120 -237 7 -4 8 -8 4 -8 -5 0 -2 -6 5 -14 7 -8
24 -29 38 -47 139 -182 374 -280 555 -232 28 8 58 16 68 18 23 5 94 44 136 75
192 139 336 412 379 712 9 68 9 349 -1 408 -4 25 -10 61 -13 80 -6 36 -40 164
-51 190 -4 8 -7 17 -8 20 -18 53 -99 214 -115 230 -3 3 -18 23 -35 45 -105
141 -281 247 -420 254 -27 2 -52 4 -55 5 -3 2 -35 -3 -71 -10z"/>
<path d="M2871 3979 c-128 -16 -307 -89 -412 -169 -46 -34 -141 -131 -175
-177 -16 -21 -33 -41 -39 -45 -7 -5 -7 -8 0 -8 6 0 5 -3 -1 -8 -11 -7 -88
-142 -153 -267 -19 -38 -40 -73 -46 -77 -5 -4 -6 -8 -2 -8 4 0 -4 -17 -18 -37
-14 -21 -25 -43 -25 -50 0 -6 -6 -18 -12 -25 -7 -7 -26 -40 -43 -73 -16 -33
-32 -62 -35 -65 -5 -5 -25 -41 -74 -134 -14 -27 -31 -55 -37 -62 -6 -8 -8 -14
-4 -14 5 0 1 -8 -7 -17 -9 -10 -24 -36 -34 -58 -10 -22 -24 -46 -31 -53 -7 -7
-13 -17 -13 -21 0 -5 -21 -46 -46 -92 -44 -79 -103 -189 -146 -268 -10 -19
-22 -39 -28 -45 -5 -5 -10 -18 -10 -27 0 -10 -4 -19 -8 -21 -5 -1 -20 -25 -34
-53 -52 -102 -73 -140 -81 -143 -4 -2 -5 -8 -1 -13 3 -5 0 -9 -5 -9 -6 0 -11
-4 -11 -9 0 -4 -33 -68 -73 -142 -247 -451 -268 -497 -294 -659 -18 -106 -8
-320 19 -415 7 -22 12 -42 13 -45 16 -69 106 -247 150 -297 5 -6 21 -26 35
-44 49 -63 194 -189 218 -189 6 0 12 -4 14 -9 6 -17 158 -81 236 -100 44 -10
121 -19 180 -20 89 -2 109 1 149 21 71 36 108 81 155 192 134 321 333 499 648
582 80 21 290 24 370 5 105 -24 274 -93 300 -121 3 -3 19 -14 35 -24 49 -31
153 -136 205 -206 47 -63 110 -179 125 -230 27 -91 90 -168 165 -202 65 -30
250 -22 369 17 87 28 210 88 223 108 4 7 8 8 8 4 0 -5 6 -2 13 5 8 7 28 24 46
38 44 34 103 93 138 137 15 20 34 42 41 49 7 8 11 14 7 14 -3 0 5 15 19 33 51
67 112 221 142 362 3 17 8 86 9 155 7 226 -37 368 -200 650 -17 30 -38 70 -46
88 -7 17 -18 32 -22 32 -5 0 -5 5 -2 10 3 5 2 10 -2 10 -5 0 -17 20 -28 45
-11 25 -24 45 -28 45 -5 0 -6 4 -3 9 4 5 3 11 -1 13 -5 1 -17 21 -28 43 -11
22 -22 42 -25 45 -5 5 -27 48 -84 159 -15 31 -31 58 -35 61 -3 3 -15 23 -26
45 -10 22 -28 52 -38 68 -10 15 -15 27 -10 27 4 0 3 4 -2 8 -6 4 -23 32 -39
62 -15 30 -37 73 -50 95 -44 79 -100 181 -134 245 -20 36 -49 90 -66 122 -17
31 -46 85 -65 120 -38 72 -84 155 -116 213 -12 22 -38 69 -57 105 -20 36 -57
106 -84 155 -49 92 -107 187 -134 218 -60 72 -200 201 -219 202 -3 1 -24 12
-46 26 -48 30 -121 61 -195 83 -30 9 -55 16 -55 15 0 0 -16 2 -35 6 -55 10
-189 12 -259 4z m-15 -1171 c16 -6 52 -27 81 -46 l52 -33 39 31 c47 37 145 70
210 70 52 0 126 -20 175 -47 47 -26 122 -107 146 -158 47 -101 42 -236 -14
-331 -21 -35 -546 -574 -560 -574 -2 0 -125 122 -274 271 -288 288 -313 321
-330 427 -28 178 92 358 266 402 48 12 171 5 209 -12z"/>
</g>
</svg>
